<svg xmlns="http://www.w3.org/2000/svg" viewBox="-4 -4 66 43" fill="none">
  <rect x="-4" y="-4" width="66" height="43" rx="6" fill="#05070d"/>
  <path fill="#C8F5A8" d="M41.9213 3.43614C43.0393 3.43614 43.8716 3.77154 44.4182 4.44235C44.9647 5.138 45.1262 6.1939 44.9026 7.61005L41.884 26.8026C41.7846 27.4982 41.8467 28.0075 42.0703 28.3305C42.2691 28.6784 42.6542 28.8771 43.2256 28.9268L43.8591 28.9641L43.8219 29.2622L36.7784 30.492L36.4803 30.492L40.1324 7.46098C40.3064 6.26843 40.0206 5.67216 39.2753 5.67216C38.9523 5.67216 38.6045 5.75912 38.2318 5.93303C37.8343 6.10694 37.3995 6.44235 36.9275 6.93924L36.7411 6.79017C38.0828 4.55415 39.8095 3.43614 41.9213 3.43614Z"/>
  <path fill="#C8F5A8" d="M29.9958 3.43614C31.1138 3.43614 31.9461 3.77154 32.4927 4.44235C33.0393 5.138 33.2007 6.1939 32.9771 7.61005L29.9585 26.8026C29.8591 27.4982 29.9212 28.0075 30.1449 28.3305C30.3436 28.6784 30.7287 28.8771 31.3001 28.9268L31.9337 28.9641L31.8964 29.2622L24.8529 30.492L24.5548 30.492L28.207 7.46098C28.3809 6.26843 28.0952 5.67216 27.3498 5.67216C27.0268 5.67216 26.679 5.75912 26.3063 5.93303C25.9088 6.10694 25.474 6.44235 25.002 6.93924L24.8157 6.79017C26.1573 4.55415 27.884 3.43614 29.9958 3.43614Z"/>
  <path fill="#C8F5A8" d="M18.0703 3.43614C19.1883 3.43614 20.0206 3.77154 20.5672 4.44235C21.1138 5.138 21.2753 6.1939 21.0517 7.61005L18.033 26.8026C17.9337 27.4982 17.9958 28.0075 18.2194 28.3305C18.4181 28.6784 18.8032 28.8771 19.3747 28.9268L20.0082 28.9641L19.9709 29.2622L12.9275 30.492L12.6293 30.492L16.2815 7.46098C16.4554 6.26843 16.1697 5.67216 15.4243 5.67216C15.1014 5.67216 14.7535 5.75912 14.3809 5.93303C13.9834 6.10694 13.5486 6.44235 13.0765 6.93924L12.8902 6.79017C14.2318 4.55415 15.9585 3.43614 18.0703 3.43614Z"/>
  <path fill="#C8F5A8" d="M45.5631 10.8482C46.0378 11.9189 46.0912 12.9315 45.7231 13.8861C45.3095 14.8231 44.3453 15.4956 42.8305 15.9035L16.576 22.853C15.2325 23.2226 14.7771 24.0651 15.2096 25.3806L15.7698 26.7714L13.8491 27.2839L9.924 22.1284L9.25377 20.6168L40.8242 12.2711C41.6674 12.048 42.2133 11.7494 42.4619 11.3754C42.6651 10.9838 42.669 10.5676 42.4735 10.1267C42.3199 9.78031 42.1016 9.5003 41.8185 9.2867C41.4899 9.05556 41.0511 8.87329 40.5021 8.7399L41.5734 7.5866C42.563 7.86379 43.3915 8.28774 44.0591 8.85845C44.7127 9.39767 45.214 10.0609 45.5631 10.8482Z"/>
</svg>
